<?xml version="1.0" encoding="UTF-8" standalone="no"?>
<!-- License Agreement at http://iconmonstr.com/license/ -->

<svg
   xmlns:dc="http://purl.org/dc/elements/1.1/"
   xmlns:cc="http://creativecommons.org/ns#"
   xmlns:rdf="http://www.w3.org/1999/02/22-rdf-syntax-ns#"
   xmlns:svg="http://www.w3.org/2000/svg"
   xmlns="http://www.w3.org/2000/svg"
   xmlns:sodipodi="http://sodipodi.sourceforge.net/DTD/sodipodi-0.dtd"
   xmlns:inkscape="http://www.inkscape.org/namespaces/inkscape"
   version="1.1"
   x="0px"
   y="0px"
   width="460"
   height="460"
   viewBox="0 0 460 460"
   enable-background="new 0 0 512 512"
   xml:space="preserve"
   id="svg2"
   inkscape:version="0.48.4 r9939"
   sodipodi:docname="iconmonstr-radio-3-icon.svg"
   inkscape:export-filename="C:\Source\CodePlex\VRS\Graphics\iconmonstr-radio-3-icon.png"
   inkscape:export-xdpi="3.1304348"
   inkscape:export-ydpi="3.1304348"><metadata
   id="metadata9"><rdf:RDF><cc:Work
       rdf:about=""><dc:format>image/svg+xml</dc:format><dc:type
         rdf:resource="http://purl.org/dc/dcmitype/StillImage" /><dc:title></dc:title></cc:Work></rdf:RDF></metadata><defs
   id="defs7" /><sodipodi:namedview
   pagecolor="#ffffff"
   bordercolor="#666666"
   borderopacity="1"
   objecttolerance="10"
   gridtolerance="10"
   guidetolerance="10"
   inkscape:pageopacity="0"
   inkscape:pageshadow="2"
   inkscape:window-width="640"
   inkscape:window-height="480"
   id="namedview5"
   showgrid="true"
   inkscape:zoom="0.4609375"
   inkscape:cx="256"
   inkscape:cy="256"
   inkscape:window-x="0"
   inkscape:window-y="0"
   inkscape:window-maximized="0"
   inkscape:current-layer="svg2"><inkscape:grid
     type="xygrid"
     id="grid2986"
     empspacing="5"
     visible="true"
     enabled="true"
     snapvisiblegridlinesonly="true" /></sodipodi:namedview>
<path
   id="radio-3-icon"
   d="m 398.79661,157.66239 h -342 c -19.33,0 -35,15.67 -35,35 v 199.832 c 0,19.33 15.67,35 35,35 h 342 c 19.33,0 35,-15.67 35,-35 v -199.832 c 0,-19.33 -15.67,-35 -35,-35 z m -27.119,81.884 c 7.041,0 12.75,5.709 12.75,12.75 0,7.042 -5.709,12.751 -12.75,12.751 -7.042,0 -12.751,-5.709 -12.751,-12.751 0,-7.041 5.709,-12.75 12.751,-12.75 z m -35.337,20.4 c 7.042,0 12.75,5.709 12.75,12.751 0,7.041 -5.708,12.75 -12.75,12.75 -7.042,0 -12.751,-5.709 -12.751,-12.75 0,-7.042 5.709,-12.751 12.751,-12.751 z m -76.139,-50.27 c 7.042,0 12.751,5.708 12.751,12.75 0,7.042 -5.709,12.751 -12.751,12.751 -7.041,0 -12.75,-5.709 -12.75,-12.751 0,-7.042 5.709,-12.75 12.75,-12.75 z m -90.487,47.652 h -33.389 l -18.611,-27.416 -19.012,27.416 h -36.405 v -59 h 146.667 c -19.918,13.334 -35.168,41 -39.25,59 z m 36.935,35.09 c 0,-7.041 5.709,-12.75 12.751,-12.75 7.041,0 12.75,5.709 12.75,12.75 0,7.042 -5.709,12.751 -12.75,12.751 -7.042,0 -12.751,-5.709 -12.751,-12.751 z m 23.682,54.232 c -7.041,0 -12.75,-5.709 -12.75,-12.75 0,-7.042 5.709,-12.751 12.75,-12.751 7.042,0 12.751,5.709 12.751,12.751 0,7.041 -5.709,12.75 -12.751,12.75 z m 0,-81.604 c -7.041,0 -12.75,-5.709 -12.75,-12.751 0,-7.041 5.709,-12.75 12.75,-12.75 7.042,0 12.751,5.709 12.751,12.75 0,7.042 -5.709,12.751 -12.751,12.751 z m 29.87,111.474 c -7.041,0 -12.75,-5.709 -12.75,-12.75 0,-7.042 5.709,-12.751 12.75,-12.751 7.042,0 12.751,5.709 12.751,12.751 0,7.041 -5.709,12.75 -12.751,12.75 z m 5.467,-50.27 c -7.041,0 -12.75,-5.709 -12.75,-12.751 0,-7.041 5.709,-12.75 12.75,-12.75 7.042,0 12.751,5.709 12.751,12.75 0,7.042 -5.709,12.751 -12.751,12.751 z m 0,-40.803 c -7.041,0 -12.75,-5.709 -12.75,-12.75 0,-7.042 5.709,-12.751 12.75,-12.751 7.042,0 12.751,5.709 12.751,12.751 0,7.041 -5.709,12.75 -12.751,12.75 z m 35.336,102.006 c -7.042,0 -12.75,-5.709 -12.75,-12.75 0,-7.042 5.708,-12.751 12.75,-12.751 7.042,0 12.751,5.709 12.751,12.751 0,7.041 -5.709,12.75 -12.751,12.75 z m 0,-40.803 c -7.042,0 -12.75,-5.709 -12.75,-12.75 0,-7.042 5.708,-12.751 12.75,-12.751 7.042,0 12.751,5.709 12.751,12.751 0,7.041 -5.709,12.75 -12.751,12.75 z m 0,-40.802 c -7.042,0 -12.75,-5.708 -12.75,-12.75 0,-7.042 5.708,-12.75 12.75,-12.75 7.042,0 12.751,5.708 12.751,12.75 0,7.042 -5.709,12.75 -12.751,12.75 z m 0,-40.801 c -7.042,0 -12.75,-5.709 -12.75,-12.751 0,-7.041 5.708,-12.75 12.75,-12.75 7.042,0 12.751,5.709 12.751,12.75 0,7.042 -5.709,12.751 -12.751,12.751 z m 0,-40.802 c -7.042,0 -12.75,-5.709 -12.75,-12.75 0,-7.042 5.708,-12.751 12.75,-12.751 7.042,0 12.751,5.709 12.751,12.751 0,7.041 -5.709,12.75 -12.751,12.75 z m 22.585,89.254 c 0,-7.041 5.709,-12.75 12.751,-12.75 7.042,0 12.75,5.709 12.75,12.75 0,7.042 -5.708,12.751 -12.75,12.751 -7.042,0 -12.751,-5.709 -12.751,-12.751 z m 18.218,63.021 c -7.042,0 -12.751,-5.709 -12.751,-12.75 0,-7.042 5.709,-12.751 12.751,-12.751 7.042,0 12.75,5.709 12.75,12.751 0,7.041 -5.708,12.75 -12.75,12.75 z m 0,-141.343 c -7.042,0 -12.751,-5.709 -12.751,-12.751 0,-7.042 5.709,-12.75 12.751,-12.75 7.042,0 12.75,5.708 12.75,12.75 0,7.042 -5.708,12.751 -12.75,12.751 z m 29.87,111.473 c -7.042,0 -12.751,-5.709 -12.751,-12.75 0,-7.042 5.709,-12.751 12.751,-12.751 7.041,0 12.75,5.709 12.75,12.751 0,7.041 -5.709,12.75 -12.75,12.75 z m 10.932,-40.802 c -7.042,0 -12.751,-5.708 -12.751,-12.75 0,-7.042 5.709,-12.75 12.751,-12.75 7.041,0 12.75,5.708 12.75,12.75 0,7.042 -5.709,12.75 -12.75,12.75 z m -313.383,-165.02 0.011,-0.009 c 11.421,-9.226 18.059,-23.12 18.059,-37.802 V 46.912391 c 0,-5.523 4.478,-10 10,-10 5.523,0 10,4.477 10,10 v 56.103999 c 0,14.688 6.643,28.587 18.071,37.812 h -56.141 z"
   inkscape:connector-curvature="0" />
</svg>